<svg width="40" height="36" viewBox="0 0 40 36" fill="none" xmlns="http://www.w3.org/2000/svg">
<ellipse cx="19.8987" cy="17.8324" rx="19.8782" ry="17.5692" fill="#FBFBFB"/>
<path fill-rule="evenodd" clip-rule="evenodd" d="M16.2098 13.4502C15.2502 13.8886 14.5473 14.9321 14.5473 16.1763C14.5473 17.4472 15.0679 18.4271 15.813 19.267C16.4279 19.9588 17.1717 20.5326 17.8971 21.0914C18.0699 21.2244 18.2405 21.357 18.409 21.4893C18.7133 21.7294 18.9846 21.9393 19.2466 22.0926C19.5086 22.2459 19.7186 22.3153 19.8979 22.3153C20.0772 22.3153 20.2878 22.2459 20.5492 22.0926C20.8113 21.9393 21.0826 21.7294 21.3868 21.4893C21.5553 21.3567 21.726 21.2242 21.8987 21.0919C22.6241 20.532 23.368 19.9588 23.9829 19.267C24.7285 18.4271 25.2485 17.4472 25.2485 16.1763C25.2485 14.9327 24.5457 13.8886 23.586 13.4502C22.6536 13.0238 21.4007 13.1366 20.2103 14.3739C20.1698 14.4159 20.1213 14.4493 20.0676 14.4721C20.0139 14.4949 19.9562 14.5067 19.8979 14.5067C19.8396 14.5067 19.7819 14.4949 19.7282 14.4721C19.6745 14.4493 19.626 14.4159 19.5856 14.3739C18.3951 13.1366 17.1422 13.0238 16.2098 13.4502ZM19.8979 13.471C18.5606 12.2736 17.063 12.1059 15.8488 12.6606C14.5682 13.2477 13.6797 14.6082 13.6797 16.1769C13.6797 17.7185 14.3218 18.895 15.1645 19.8437C15.839 20.6031 16.6644 21.2389 17.3938 21.7999C17.5597 21.9272 17.7189 22.051 17.8716 22.1713C18.1684 22.405 18.4865 22.6537 18.8087 22.8423C19.1309 23.0309 19.4988 23.1836 19.8979 23.1836C20.297 23.1836 20.6649 23.0303 20.9871 22.8423C21.3099 22.6537 21.6275 22.405 21.9242 22.1713C22.0769 22.051 22.2362 21.9272 22.402 21.7999C23.1308 21.2389 23.9568 20.6026 24.6313 19.8437C25.4741 18.895 26.1161 17.7185 26.1161 16.1769C26.1161 14.6082 25.2282 13.2477 23.947 12.6617C22.7328 12.1064 21.2353 12.2742 19.8979 13.471Z" fill="black"/>
</svg>
