<svg width="16" height="16" viewBox="0 0 16 16" fill="none" xmlns="http://www.w3.org/2000/svg">
<path d="M12 12H11.8984C11.7786 11.4167 11.5677 10.8802 11.2656 10.3906C10.9635 9.90104 10.5964 9.47917 10.1641 9.125C9.73177 8.77083 9.24479 8.49479 8.70312 8.29688C8.16146 8.09896 7.59375 8 7 8C6.54167 8 6.09896 8.0599 5.67188 8.17969C5.24479 8.29948 4.84635 8.46615 4.47656 8.67969C4.10677 8.89323 3.77083 9.15365 3.46875 9.46094C3.16667 9.76823 2.90625 10.1068 2.6875 10.4766C2.46875 10.8464 2.29948 11.2448 2.17969 11.6719C2.0599 12.099 2 12.5417 2 13H1C1 12.375 1.09115 11.7734 1.27344 11.1953C1.45573 10.6172 1.71875 10.0833 2.0625 9.59375C2.40625 9.10417 2.8125 8.66927 3.28125 8.28906C3.75 7.90885 4.28125 7.60938 4.875 7.39062C4.28646 7.00521 3.82812 6.52083 3.5 5.9375C3.17188 5.35417 3.00521 4.70833 3 4C3 3.44792 3.10417 2.92969 3.3125 2.44531C3.52083 1.96094 3.80469 1.53646 4.16406 1.17188C4.52344 0.807292 4.94792 0.520833 5.4375 0.3125C5.92708 0.104167 6.44792 0 7 0C7.55208 0 8.07031 0.104167 8.55469 0.3125C9.03906 0.520833 9.46354 0.804688 9.82812 1.16406C10.1927 1.52344 10.4792 1.94792 10.6875 2.4375C10.8958 2.92708 11 3.44792 11 4C11 4.34375 10.9583 4.67969 10.875 5.00781C10.7917 5.33594 10.6667 5.64583 10.5 5.9375C10.3333 6.22917 10.138 6.4974 9.91406 6.74219C9.6901 6.98698 9.42708 7.20312 9.125 7.39062C9.70833 7.61458 10.2448 7.92188 10.7344 8.3125C11.224 8.70312 11.6458 9.16146 12 9.6875V12ZM4 4C4 4.41667 4.07812 4.80469 4.23438 5.16406C4.39062 5.52344 4.60417 5.84115 4.875 6.11719C5.14583 6.39323 5.46354 6.60938 5.82812 6.76562C6.19271 6.92188 6.58333 7 7 7C7.41146 7 7.79948 6.92188 8.16406 6.76562C8.52865 6.60938 8.84635 6.39583 9.11719 6.125C9.38802 5.85417 9.60417 5.53646 9.76562 5.17188C9.92708 4.80729 10.0052 4.41667 10 4C10 3.58854 9.92188 3.20052 9.76562 2.83594C9.60938 2.47135 9.39583 2.15365 9.125 1.88281C8.85417 1.61198 8.53385 1.39583 8.16406 1.23438C7.79427 1.07292 7.40625 0.994792 7 1C6.58333 1 6.19531 1.07812 5.83594 1.23438C5.47656 1.39062 5.15885 1.60417 4.88281 1.875C4.60677 2.14583 4.39062 2.46615 4.23438 2.83594C4.07812 3.20573 4 3.59375 4 4ZM14 13H16V14H14V16H13V14H11V13H13V11H14V13Z" fill="black"/>
</svg>
