<svg width="21" height="13" viewBox="0 0 21 13" fill="none" xmlns="http://www.w3.org/2000/svg">
<path d="M15.0898 0.25C17.2031 0.250057 18.9549 2.07562 18.9551 4.33301C18.9544 4.97812 18.809 5.6138 18.5312 6.1875C18.2536 6.76105 17.8515 7.25658 17.3594 7.63379L17.0488 7.87207L17.3955 8.05371C19.0552 8.92055 20.2299 10.6847 20.3184 12.75H19.4482C19.3255 10.3393 17.4391 8.41705 15.0898 8.41699C12.7405 8.41699 10.8542 10.3393 10.7314 12.75H9.8457C9.72299 10.3393 7.83656 8.41706 5.4873 8.41699C3.13798 8.41699 1.25062 10.3393 1.12793 12.75H0.258789C0.347231 10.6855 1.52121 8.92061 3.18066 8.05371L3.52734 7.87305L3.21777 7.63379C2.25495 6.8903 1.62207 5.68719 1.62207 4.33301C1.62224 2.07558 3.37402 0.25 5.4873 0.25C7.60054 0.250072 9.35237 2.07563 9.35254 4.33301C9.35183 4.97812 9.20642 5.6138 8.92871 6.1875C8.65103 6.76105 8.24899 7.25658 7.75684 7.63379L7.44434 7.87305L7.79395 8.05371C8.74984 8.54843 9.54382 9.33776 10.0684 10.3193L10.2881 10.7314L10.5088 10.3193C11.0333 9.33776 11.8273 8.54843 12.7832 8.05371L13.1309 7.87402L12.8203 7.63379C11.8575 6.8903 11.2246 5.68719 11.2246 4.33301C11.2248 2.07558 12.9766 0.25 15.0898 0.25ZM5.4873 1.19434C3.81259 1.19434 2.49333 2.6019 2.49316 4.33301C2.49316 6.06427 3.81248 7.47266 5.4873 7.47266C7.16207 7.47259 8.48047 6.06422 8.48047 4.33301C8.4803 2.60194 7.16196 1.19441 5.4873 1.19434ZM15.0898 1.19434C13.4151 1.19434 12.0959 2.6019 12.0957 4.33301C12.0957 6.06427 13.415 7.47266 15.0898 7.47266C16.7646 7.4726 18.083 6.06423 18.083 4.33301C18.0828 2.60193 16.7645 1.19439 15.0898 1.19434Z" fill="black" stroke="#EBEBEC" stroke-width="0.5"/>
</svg>
