<svg width="14" height="15" viewBox="0 0 14 15" fill="none" xmlns="http://www.w3.org/2000/svg">
<path d="M7.44801 13.9531C7.31745 14.0377 7.16075 14.0833 7 14.0833C6.83925 14.0833 6.68255 14.0377 6.55199 13.9531C2.68867 11.4672 -1.41145 6.35396 2.73348 2.65912C3.87138 1.64864 5.40382 1.08262 7 1.08325C8.60005 1.08325 10.1353 1.65019 11.2665 2.6584C15.4114 6.35323 11.3113 11.4658 7.44801 13.9531Z" stroke="black" stroke-width="1.5" stroke-linecap="round" stroke-linejoin="round"/>
<path d="M7.00044 7.58318C7.4248 7.58318 7.83177 7.431 8.13184 7.16012C8.43191 6.88924 8.60048 6.52185 8.60048 6.13876C8.60048 5.75567 8.43191 5.38828 8.13184 5.1174C7.83177 4.84652 7.4248 4.69434 7.00044 4.69434C6.57608 4.69434 6.1691 4.84652 5.86903 5.1174C5.56897 5.38828 5.40039 5.75567 5.40039 6.13876C5.40039 6.52185 5.56897 6.88924 5.86903 7.16012C6.1691 7.431 6.57608 7.58318 7.00044 7.58318Z" stroke="black" stroke-width="1.5" stroke-linecap="round" stroke-linejoin="round"/>
</svg>
