<svg width="64" height="49" viewBox="0 0 64 49" fill="none" xmlns="http://www.w3.org/2000/svg">
<path d="M10.6647 4.83934C11.5096 5.64598 12.1635 6.60643 12.6264 7.71727C13.0925 8.82469 13.2576 9.99193 13.1249 11.2173C13.0084 12.2341 12.6976 13.1843 12.1926 14.0679C11.6876 14.9531 11.0694 15.7187 10.341 16.3647C9.5285 17.0996 8.57032 17.6892 7.46647 18.1352C6.36586 18.583 5.31057 18.9812 4.3006 19.3315C4.01573 19.4375 3.72763 19.5212 3.43953 19.5845C3.14981 19.6443 2.86495 19.6562 2.58494 19.6186C2.18678 19.5639 1.84203 19.3691 1.54907 19.0307C1.25935 18.6889 1.12339 18.3096 1.14119 17.8891C1.25773 13.1279 1.48109 8.35814 1.81451 3.58153C1.84364 3.03978 2.01197 2.65868 2.3195 2.43993C2.6254 2.22118 2.98958 2.10839 3.41363 2.09813C3.83607 2.08959 4.24557 2.11864 4.64373 2.187C4.8768 2.2246 5.09207 2.26049 5.29115 2.29638C6.27037 2.50658 7.2156 2.80053 8.12684 3.17821C9.03646 3.55248 9.88296 4.10619 10.6647 4.83934ZM9.27277 11.4292C9.50099 10.7285 9.53498 10.0893 9.37636 9.51512C9.22098 8.93749 8.93611 8.43846 8.52177 8.01805C8.10742 7.59935 7.617 7.25072 7.05213 6.97216C6.49049 6.69017 5.92076 6.47826 5.34294 6.33641C5.17785 9.20751 5.04675 12.0615 4.94802 14.895C5.55983 14.6865 6.15222 14.4473 6.72194 14.1772C7.29491 13.9038 7.80475 13.5535 8.24985 13.1245C8.69819 12.6921 9.0397 12.1265 9.27277 11.4292Z" fill="black" fill-opacity="0.4"/>
<path d="M27.2932 9.61732C27.345 11.3502 27.3855 13.09 27.4162 14.84C27.4502 16.59 27.4939 18.34 27.5457 20.09C27.5587 20.5958 27.4389 21.0026 27.1896 21.3068C26.9436 21.6161 26.6361 21.8195 26.2703 21.9152C25.9077 22.0109 25.5387 22.0109 25.1632 21.9152C24.7909 21.8195 24.4769 21.6161 24.218 21.3068C23.9623 21.0026 23.8295 20.5958 23.8166 20.09C23.7988 19.567 23.7858 19.0475 23.7777 18.5314C23.768 18.0119 23.7551 17.4906 23.7389 16.966L20.0098 16.8087C19.8754 17.4752 19.7508 18.1349 19.6343 18.7911C19.521 19.4474 19.4077 20.1088 19.2911 20.7736C19.2037 21.2794 19.016 21.6452 18.7279 21.8742C18.4382 22.1014 18.1015 22.2108 17.7179 22.2023C17.3375 22.192 16.9766 22.0878 16.6367 21.8878C16.3001 21.6862 16.0362 21.4042 15.8469 21.0402C15.6559 20.671 15.6025 20.2318 15.685 19.7208C15.9828 18.0084 16.3162 16.3131 16.6885 14.6349C17.064 12.9533 17.59 11.3161 18.2682 9.71986C18.6 8.93202 19.0224 8.08436 19.5371 7.17689C20.0502 6.26601 20.6329 5.43031 21.2852 4.66811C21.9407 3.90761 22.6674 3.35219 23.467 3.00014C24.2131 2.66859 24.8168 2.60707 25.2797 2.81557C25.7459 3.02577 26.1101 3.40346 26.3739 3.95033C26.6361 4.49379 26.8303 5.11928 26.9566 5.83021C27.0812 6.53773 27.1637 7.23158 27.2026 7.91517C27.2447 8.59535 27.2754 9.16273 27.2932 9.61732ZM21.0262 12.9259C21.4745 12.9447 21.9148 12.9635 22.3469 12.9806C22.7775 12.9943 23.2096 13.0114 23.6418 13.0285C23.624 12.4508 23.611 11.8783 23.6029 11.3126C23.5932 10.7435 23.5803 10.1779 23.5641 9.61732C23.5463 9.39003 23.5382 9.15077 23.5382 8.89955C23.5382 8.64491 23.5382 8.38515 23.5382 8.12025C23.2566 8.4723 23.017 8.80385 22.8196 9.1183C22.4861 9.64296 22.1818 10.1898 21.9067 10.7589C21.6348 11.3297 21.3904 11.9005 21.1751 12.4747C21.1622 12.5482 21.1427 12.6234 21.1168 12.7003C21.0909 12.7789 21.0602 12.8541 21.0262 12.9259Z" fill="black" fill-opacity="0.4"/>
<path d="M31.1484 4.92151C31.1953 4.42932 31.3588 4.03626 31.6404 3.73889C31.9253 3.43811 32.2571 3.23645 32.6374 3.1305C33.021 3.02625 33.3949 3.02454 33.7574 3.12366C34.12 3.21936 34.4081 3.42102 34.625 3.72522C34.8403 4.03113 34.9244 4.42932 34.8775 4.92151C34.3935 9.66223 34.0197 14.4132 33.7574 19.1744C33.7218 19.6803 33.5713 20.087 33.3043 20.3912C33.0404 20.6971 32.7232 20.9005 32.3525 20.9996C31.9803 21.0953 31.6113 21.0953 31.2455 20.9996C30.8829 20.9005 30.5802 20.6971 30.3391 20.3912C30.0963 20.087 29.9927 19.6803 30.0283 19.1744C30.2905 14.4132 30.6644 9.66223 31.1484 4.92151Z" fill="black" fill-opacity="0.4"/>
<path d="M47.1042 12.6115C47.5866 12.5756 47.9685 12.6764 48.2502 12.9122C48.5302 13.1498 48.7196 13.4625 48.8199 13.8488C48.9186 14.2316 48.9186 14.6246 48.8199 15.0245C48.7196 15.4261 48.5253 15.7731 48.2372 16.0636C47.9475 16.3507 47.5704 16.5131 47.1042 16.549C45.8482 16.6549 44.6084 16.8258 43.3881 17.0616C42.1709 17.2941 40.957 17.5948 39.7496 17.964C39.4 18.0699 39.0342 18.0494 38.6554 17.9025C38.2751 17.7521 37.9595 17.5162 37.7102 17.1915C37.4593 16.8685 37.3509 16.4874 37.3865 16.0499C37.5839 13.9991 37.7782 11.9518 37.9692 9.90442C38.1585 7.85876 38.3463 5.81311 38.5324 3.76575C38.5794 3.27356 38.7428 2.87537 39.0245 2.56946C39.3093 2.26526 39.6411 2.0636 40.0215 1.9679C40.4002 1.86877 40.7676 1.86877 41.1221 1.9679C41.4798 2.0636 41.7711 2.26526 41.9961 2.56946C42.2195 2.87537 42.3085 3.27356 42.2615 3.76575C42.1094 5.3927 41.9589 7.01624 41.8084 8.63293C41.6611 10.2513 41.5122 11.8646 41.3616 13.4728C43.2343 13.0541 45.149 12.767 47.1042 12.6115Z" fill="black" fill-opacity="0.4"/>
<path d="M60.1808 3.1302C60.2326 2.62434 60.4025 2.24666 60.6922 1.99544C60.9803 1.7408 61.3105 1.59553 61.6828 1.55794C62.0583 1.52205 62.4224 1.59212 62.7769 1.76985C63.1346 1.94417 63.4179 2.20564 63.625 2.55598C63.8322 2.90803 63.9034 3.32674 63.8387 3.8138C63.7043 4.95369 63.5797 6.15852 63.4632 7.43001C63.3466 8.69807 63.1751 9.96956 62.9517 11.2445C62.7316 12.5211 62.4095 13.7379 61.9871 14.8948C61.563 16.0484 60.9868 17.0858 60.2585 18.0052C59.5285 18.9212 58.5914 19.6595 57.4487 20.22C57.0165 20.4302 56.6216 20.4764 56.2639 20.3568C55.9094 20.2337 55.6246 20.0115 55.4093 19.6868C55.1924 19.3638 55.0629 18.9964 55.0208 18.5863C54.982 18.1727 55.0484 17.7779 55.2215 17.4036C55.398 17.026 55.7006 16.7406 56.1279 16.5491C56.6928 16.2672 57.1525 15.8912 57.5069 15.4212C57.8646 14.9478 58.1511 14.4215 58.368 13.8421C57.6898 14.0882 56.9971 14.2078 56.2898 14.1976C55.5857 14.189 54.8946 13.9993 54.218 13.6302C53.3197 13.1619 52.6513 12.4989 52.211 11.6409C51.774 10.7796 51.5134 9.83967 51.4277 8.8177C51.3451 7.79231 51.3904 6.77034 51.5636 5.74837C51.74 4.72298 52.0039 3.79841 52.3535 2.97298C52.5347 2.50471 52.797 2.18684 53.1433 2.02278C53.4929 1.8553 53.8522 1.80403 54.2245 1.87239C54.6 1.94075 54.9367 2.10823 55.2345 2.37141C55.5323 2.63631 55.7346 2.96272 55.8431 3.34895C55.9499 3.73176 55.9143 4.15901 55.733 4.62727C55.5987 4.92805 55.4643 5.33137 55.3316 5.83723C55.2021 6.34309 55.1066 6.8763 55.0467 7.43684C54.9901 7.99739 55.0111 8.51521 55.1115 8.9886C55.2102 9.45857 55.4433 9.81575 55.8107 10.0618C56.1376 10.3079 56.497 10.3883 56.8854 10.3011C57.2771 10.2156 57.651 10.0277 58.0054 9.74055C58.3631 9.45002 58.682 9.1219 58.9636 8.75618C59.2436 8.38704 59.4686 8.05208 59.6369 7.75129C59.7357 6.98225 59.8263 6.2115 59.9088 5.44075C59.9898 4.67171 60.0804 3.90095 60.1808 3.1302Z" fill="black" fill-opacity="0.4"/>
<path d="M9.56609 3.67919C10.411 4.48583 11.0649 5.44628 11.5278 6.55712C11.9939 7.66454 12.159 8.83177 12.0263 10.0571C11.9097 11.074 11.599 12.0242 11.094 12.9077C10.589 13.793 9.97073 14.5586 9.24238 15.2046C8.42987 15.9394 7.47169 16.529 6.36784 16.9751C5.26723 17.4228 4.21194 17.821 3.20196 18.1714C2.9171 18.2773 2.629 18.3611 2.3409 18.4243C2.05118 18.4841 1.76631 18.4961 1.48631 18.4585C1.08814 18.4038 0.743392 18.209 0.450436 17.8706C0.160716 17.5288 0.0247577 17.1494 0.0425618 16.729C0.159097 11.9678 0.382456 7.19799 0.715877 2.42138C0.745011 1.87963 0.91334 1.49852 1.22086 1.27977C1.52677 1.06102 1.89094 0.948232 2.315 0.937977C2.73744 0.929433 3.14693 0.958485 3.5451 1.02684C3.77817 1.06444 3.99343 1.10033 4.19252 1.13622C5.17174 1.34642 6.11697 1.64037 7.02821 2.01806C7.93783 2.39232 8.78433 2.94603 9.56609 3.67919ZM8.17414 10.269C8.40235 9.56835 8.43634 8.92919 8.27773 8.35497C8.12235 7.77733 7.83748 7.27831 7.42313 6.8579C7.00879 6.4392 6.51837 6.09056 5.95349 5.812C5.39186 5.53002 4.82213 5.3181 4.24431 5.17626C4.07922 8.04735 3.94811 10.9014 3.84938 13.7348C4.46119 13.5264 5.05358 13.2871 5.62331 13.0171C6.19628 12.7436 6.70612 12.3933 7.15122 11.9643C7.59956 11.532 7.94107 10.9663 8.17414 10.269Z" fill="#F4CA44"/>
<path d="M26.1946 8.45717C26.2464 10.1901 26.2868 11.9298 26.3176 13.6798C26.3516 15.4298 26.3953 17.1798 26.4471 18.9298C26.46 19.4357 26.3403 19.8424 26.091 20.1466C25.845 20.4559 25.5375 20.6593 25.1717 20.755C24.8091 20.8507 24.4401 20.8507 24.0646 20.755C23.6923 20.6593 23.3783 20.4559 23.1193 20.1466C22.8636 19.8424 22.7309 19.4357 22.7179 18.9298C22.7001 18.4069 22.6872 17.8873 22.6791 17.3712C22.6694 16.8517 22.6564 16.3305 22.6403 15.8058L18.9111 15.6486C18.7768 16.3151 18.6522 16.9747 18.5356 17.631C18.4223 18.2872 18.309 18.9486 18.1925 19.6134C18.1051 20.1193 17.9173 20.485 17.6292 20.714C17.3395 20.9413 17.0029 21.0507 16.6193 21.0421C16.2389 21.0319 15.878 20.9276 15.5381 20.7277C15.2014 20.526 14.9376 20.244 14.7482 19.88C14.5572 19.5109 14.5038 19.0717 14.5864 18.5607C14.8842 16.8483 15.2176 15.153 15.5899 13.4747C15.9654 11.7931 16.4914 10.1559 17.1696 8.55971C17.5014 7.77186 17.9238 6.92421 18.4385 6.01674C18.9516 5.10585 19.5343 4.27016 20.1865 3.50795C20.8421 2.74745 21.5688 2.19203 22.3683 1.83998C23.1145 1.50844 23.7182 1.44691 24.1811 1.65541C24.6473 1.86562 25.0114 2.2433 25.2753 2.79018C25.5375 3.33363 25.7317 3.95912 25.8579 4.67006C25.9826 5.37758 26.0651 6.07142 26.1039 6.75502C26.146 7.43519 26.1768 8.00258 26.1946 8.45717ZM19.9276 11.7658C20.3759 11.7846 20.8162 11.8034 21.2483 11.8204C21.6788 11.8341 22.111 11.8512 22.5431 11.8683C22.5253 11.2907 22.5124 10.7182 22.5043 10.1525C22.4946 9.58339 22.4816 9.01771 22.4655 8.45717C22.4477 8.22987 22.4396 7.99061 22.4396 7.73939C22.4396 7.48475 22.4396 7.22499 22.4396 6.9601C22.1579 7.31215 21.9184 7.64369 21.7209 7.95814C21.3875 8.4828 21.0832 9.02968 20.8081 9.59877C20.5361 10.1696 20.2917 10.7404 20.0765 11.3146C20.0635 11.3881 20.0441 11.4633 20.0182 11.5402C19.9923 11.6188 19.9616 11.694 19.9276 11.7658Z" fill="#F4CA44"/>
<path d="M30.0497 3.76136C30.0967 3.26917 30.2601 2.8761 30.5418 2.57874C30.8266 2.27796 31.1584 2.0763 31.5388 1.97034C31.9224 1.86609 32.2963 1.86438 32.6588 1.9635C33.0214 2.05921 33.3095 2.26087 33.5264 2.56507C33.7416 2.87097 33.8258 3.26917 33.7788 3.76136C33.2949 8.50208 32.921 13.2531 32.6588 18.0143C32.6232 18.5201 32.4727 18.9269 32.2056 19.2311C31.9418 19.537 31.6246 19.7404 31.2539 19.8395C30.8817 19.9352 30.5126 19.9352 30.1468 19.8395C29.7843 19.7404 29.4816 19.537 29.2404 19.2311C28.9977 18.9269 28.8941 18.5201 28.9297 18.0143C29.1919 13.2531 29.5658 8.50208 30.0497 3.76136Z" fill="#F4CA44"/>
<path d="M46.0056 11.4518C46.4879 11.4159 46.8699 11.5167 47.1515 11.7526C47.4315 11.9901 47.6209 12.3029 47.7213 12.6891C47.82 13.0719 47.82 13.465 47.7213 13.8649C47.6209 14.2665 47.4267 14.6134 47.1386 14.9039C46.8489 15.191 46.4718 15.3534 46.0056 15.3893C44.7496 15.4952 43.5098 15.6661 42.2894 15.902C41.0723 16.1344 39.8584 16.4352 38.6509 16.8043C38.3013 16.9103 37.9355 16.8898 37.5568 16.7428C37.1764 16.5924 36.8608 16.3566 36.6116 16.0319C36.3607 15.7089 36.2522 15.3278 36.2879 14.8903C36.4853 12.8395 36.6795 10.7921 36.8705 8.74475C37.0599 6.6991 37.2477 4.65344 37.4338 2.60608C37.4807 2.11389 37.6442 1.7157 37.9258 1.40979C38.2107 1.10559 38.5425 0.903931 38.9228 0.808228C39.3016 0.709106 39.669 0.709106 40.0235 0.808228C40.3812 0.903931 40.6725 1.10559 40.8975 1.40979C41.1208 1.7157 41.2099 2.11389 41.1629 2.60608C41.0108 4.23303 40.8602 5.85657 40.7097 7.47327C40.5624 9.09167 40.4135 10.705 40.263 12.3131C42.1357 11.8944 44.0504 11.6073 46.0056 11.4518Z" fill="#F4CA44"/>
<path d="M59.0821 1.97005C59.1339 1.46419 59.3039 1.0865 59.5936 0.83528C59.8817 0.580642 60.2119 0.435378 60.5841 0.39778C60.9596 0.361892 61.3238 0.43196 61.6783 0.609694C62.036 0.784011 62.3192 1.04549 62.5264 1.39583C62.7336 1.74788 62.8048 2.16658 62.74 2.65364C62.6057 3.79353 62.4811 4.99837 62.3645 6.26985C62.248 7.53792 62.0764 8.8094 61.8531 10.0843C61.633 11.3609 61.3109 12.5777 60.8884 13.7347C60.4644 14.8883 59.8882 15.9256 59.1598 16.845C58.4299 17.7611 57.4927 18.4993 56.35 19.0599C55.9179 19.2701 55.5229 19.3162 55.1652 19.1966C54.8108 19.0736 54.5259 18.8514 54.3107 18.5267C54.0938 18.2037 53.9643 17.8363 53.9222 17.4261C53.8834 17.0125 53.9497 16.6177 54.1229 16.2435C54.2993 15.8658 54.602 15.5804 55.0293 15.389C55.5942 15.107 56.0538 14.731 56.4083 14.2611C56.766 13.7877 57.0525 13.2613 57.2694 12.682C56.5912 12.9281 55.8984 13.0477 55.1911 13.0374C54.4871 13.0289 53.796 12.8392 53.1194 12.47C52.2211 12.0018 51.5527 11.3387 51.1124 10.4808C50.6754 9.61946 50.4148 8.67952 50.329 7.65754C50.2465 6.63215 50.2918 5.61018 50.465 4.58821C50.6414 3.56282 50.9052 2.63826 51.2548 1.81282C51.4361 1.34456 51.6983 1.02669 52.0447 0.862624C52.3943 0.695143 52.7536 0.643874 53.1259 0.712233C53.5014 0.780593 53.838 0.948074 54.1359 1.21126C54.4337 1.47615 54.636 1.80257 54.7444 2.1888C54.8512 2.57161 54.8156 2.99885 54.6344 3.46712C54.5 3.7679 54.3657 4.17122 54.233 4.67708C54.1035 5.18294 54.008 5.71614 53.9481 6.27669C53.8915 6.83723 53.9125 7.35505 54.0128 7.82844C54.1116 8.29841 54.3446 8.65559 54.7121 8.90168C55.039 9.14778 55.3983 9.2281 55.7868 9.14094C56.1785 9.05549 56.5523 8.86751 56.9068 8.5804C57.2645 8.28987 57.5834 7.96174 57.865 7.59602C58.145 7.22688 58.37 6.89192 58.5383 6.59114C58.637 5.8221 58.7277 5.05134 58.8102 4.28059C58.8911 3.51155 58.9818 2.7408 59.0821 1.97005Z" fill="#F4CA44"/>
<path d="M16.7142 29.1131C17.5121 29.4463 18.2372 29.8924 18.8895 30.4529C19.545 31.0135 20.0759 31.6543 20.4821 32.3738C20.8868 33.0899 21.1182 33.8675 21.1749 34.7049C21.2348 35.544 21.0664 36.419 20.6699 37.3299C20.1552 38.451 19.4414 39.3362 18.5269 39.9822C17.6157 40.6299 16.6106 41.0486 15.51 41.24C14.4093 41.4314 13.3184 41.3887 12.2405 41.1102C12.1401 42.1082 12.0414 43.1062 11.9427 44.1043C11.8423 45.1023 11.7436 46.1004 11.6449 47.0984C11.5931 47.6043 11.4312 48.0042 11.1593 48.3016C10.8874 48.5972 10.5588 48.7972 10.1752 48.9031C9.79487 49.0125 9.42098 49.0125 9.05519 48.9031C8.69264 48.7972 8.40292 48.5972 8.18765 48.3016C7.97077 48.0042 7.88013 47.6043 7.91574 47.0984C8.14881 44.752 8.37217 42.3987 8.58905 40.0369C8.80432 37.6717 9.03577 35.3184 9.28179 32.9754C9.39832 32.0457 9.63787 31.21 10.0004 30.4666C10.3662 29.7249 10.991 29.178 11.8715 28.826C12.6484 28.5115 13.4641 28.4021 14.3187 28.4979C15.1733 28.5936 15.9712 28.7986 16.7142 29.1131ZM12.616 37.1453C13.0303 37.2684 13.503 37.3436 14.0338 37.3709C14.5647 37.3982 15.0859 37.3418 15.6006 37.2C16.1137 37.0599 16.5426 36.8172 16.889 36.4754C17.2386 36.1336 17.436 35.6585 17.4846 35.0467C17.5186 34.6604 17.3956 34.293 17.1156 33.9461C16.8339 33.5958 16.4698 33.2864 16.0214 33.0164C15.5715 32.743 15.1231 32.5499 14.6748 32.4354C14.2297 32.3226 13.8493 32.3174 13.5353 32.4217C13.3541 32.4729 13.2408 32.5071 13.1987 32.5242C13.155 32.543 13.1339 32.584 13.1339 32.6473C13.1339 32.7071 13.0918 32.8165 13.0109 32.9754C12.9106 33.2181 12.862 33.5325 12.862 33.9187C12.862 34.3016 12.8523 34.6348 12.8361 34.9168C12.8054 35.2825 12.7681 35.6534 12.7261 36.0311C12.6824 36.4104 12.6451 36.7813 12.616 37.1453Z" fill="black" fill-opacity="0.4"/>
<path d="M24.7968 30.8497C24.8437 30.3575 25.0072 29.9645 25.2888 29.6671C25.5737 29.3663 25.9055 29.1647 26.2859 29.0587C26.6694 28.9545 27.0433 28.9528 27.4059 29.0519C27.7684 29.1476 28.0565 29.3492 28.2734 29.6534C28.4887 29.9594 28.5729 30.3575 28.5259 30.8497C28.042 35.5905 27.6681 40.3414 27.4059 45.1027C27.3703 45.6085 27.2198 46.0153 26.9527 46.3195C26.6889 46.6254 26.3716 46.8287 26.001 46.9279C25.6287 47.0236 25.2597 47.0236 24.8939 46.9279C24.5313 46.8287 24.2287 46.6254 23.9875 46.3195C23.7447 46.0153 23.6411 45.6085 23.6768 45.1027C23.939 40.3414 24.3128 35.5905 24.7968 30.8497Z" fill="black" fill-opacity="0.4"/>
<path d="M40.8565 40.7139C41.3178 40.5771 41.7192 40.5959 42.0607 40.7685C42.4006 40.9429 42.666 41.2043 42.857 41.5547C43.0464 41.9067 43.1451 42.2844 43.1548 42.6894C43.1629 43.0911 43.0642 43.4619 42.857 43.8037C42.6498 44.1421 42.3132 44.3711 41.847 44.4941C41.0054 44.759 40.1395 44.9521 39.2509 45.0752C38.3655 45.1982 37.4867 45.2034 36.6159 45.0889C35.7435 44.9761 34.9099 44.6821 34.1169 44.207C33.0891 43.5781 32.3057 42.7219 31.7667 41.6367C31.2261 40.5532 30.9834 39.3877 31.0351 38.1435C31.0999 36.9182 31.388 35.7424 31.9027 34.6162C32.4158 33.4866 33.1004 32.4936 33.955 31.6357C34.8096 30.7795 35.7775 30.1182 36.8619 29.6533C37.9496 29.1885 39.0826 29.0005 40.2609 29.0859C40.74 29.1406 41.1235 29.3149 41.4133 29.6055C41.7014 29.8926 41.8924 30.2327 41.983 30.624C42.0769 31.0171 42.0769 31.4067 41.983 31.793C41.8924 32.1758 41.7014 32.4902 41.4133 32.7363C41.1235 32.9824 40.74 33.0781 40.2609 33.0234C39.3966 32.9551 38.5792 33.126 37.8071 33.5361C37.0383 33.9463 36.3893 34.5205 35.8584 35.2588C35.3275 35.9936 34.9876 36.8071 34.842 37.6992C34.6898 38.5024 34.7271 39.145 34.952 39.6269C35.1754 40.1106 35.5104 40.4661 35.9555 40.6934C36.4039 40.9172 36.9137 41.0557 37.4834 41.1103C38.0564 41.165 38.6375 41.1497 39.225 41.0625C39.8158 40.9719 40.3596 40.8557 40.8565 40.7139Z" fill="black" fill-opacity="0.4"/>
<path d="M56.8399 30.4805C56.343 31.3555 55.8073 32.2305 55.2343 33.1055C54.6646 33.9805 54.0058 34.7598 53.2597 35.4434C54.8523 37.3489 55.7555 39.6236 55.9724 42.2657C56.0015 42.7715 55.9044 43.1749 55.681 43.4756C55.4609 43.773 55.1712 43.973 54.8135 44.0772C54.4542 44.1832 54.0851 44.1832 53.7064 44.0772C53.326 43.973 52.9942 43.7679 52.7094 43.462C52.4277 43.1526 52.2724 42.7545 52.2432 42.2657C52.1558 41.336 51.9147 40.4473 51.5181 39.5997C51.12 38.752 50.5988 38.024 49.9514 37.4122C49.7863 39.6133 49.5645 41.8077 49.2845 43.9952C49.2327 44.3472 49.0774 44.6412 48.8184 44.877C48.5627 45.1146 48.2648 45.2769 47.925 45.3624C47.5883 45.4495 47.2711 45.4495 46.9732 45.3624C46.4424 45.2086 46.075 44.8975 45.8726 44.4327C45.6736 43.9678 45.6088 43.4739 45.6784 42.9493C45.9924 40.4661 46.2287 37.9727 46.3841 35.4708C46.5427 32.9654 46.6317 30.4515 46.6495 27.9307C46.6495 27.4249 46.7725 27.025 47.0186 26.7276C47.2678 26.4268 47.5786 26.2252 47.9508 26.1192C48.3264 26.015 48.6986 26.015 49.0709 26.1192C49.4415 26.2252 49.7523 26.4268 50.0032 26.7276C50.2524 27.025 50.3787 27.4249 50.3787 27.9307C50.3609 28.7886 50.3431 29.6431 50.3269 30.4942C50.3091 31.3419 50.2767 32.1946 50.2298 33.0508C50.725 32.7552 51.1815 32.3365 51.5958 31.793C52.0102 31.2513 52.3808 30.6839 52.7094 30.0909C53.0412 29.4944 53.3406 28.9595 53.6093 28.4844C53.8553 28.0469 54.1564 27.7632 54.5157 27.6299C54.8734 27.4984 55.2375 27.4898 55.6098 27.6026C55.9805 27.7171 56.3025 27.9153 56.5745 28.1973C56.8496 28.4759 57.0212 28.8177 57.0859 29.2227C57.1539 29.6243 57.073 30.043 56.8399 30.4805Z" fill="black" fill-opacity="0.4"/>
<path d="M15.6155 27.9529C16.4135 28.2862 17.1386 28.7322 17.7908 29.2928C18.4464 29.8533 18.9772 30.4942 19.3835 31.2137C19.7881 31.9297 20.0196 32.7073 20.0762 33.5447C20.1361 34.3838 19.9678 35.2588 19.5712 36.1697C19.0566 37.2908 18.3428 38.1761 17.4283 38.8221C16.5171 39.4698 15.5119 39.8885 14.4113 40.0799C13.3107 40.2713 12.2198 40.2286 11.1419 39.95C11.0415 40.948 10.9428 41.9461 10.844 42.9441C10.7437 43.9422 10.645 44.9402 10.5462 45.9383C10.4944 46.4441 10.3326 46.844 10.0607 47.1414C9.78875 47.4371 9.46019 47.637 9.07659 47.743C8.69624 47.8523 8.32235 47.8523 7.95656 47.743C7.59401 47.637 7.30429 47.4371 7.08902 47.1414C6.87213 46.844 6.78149 46.4441 6.8171 45.9383C7.05017 43.5918 7.27353 41.2386 7.49042 38.8768C7.70568 36.5115 7.93714 34.1583 8.18316 31.8152C8.29969 30.8855 8.53924 30.0499 8.90179 29.3064C9.26758 28.5647 9.89234 28.0179 10.7728 27.6658C11.5497 27.3514 12.3655 27.242 13.2201 27.3377C14.0747 27.4334 14.8726 27.6385 15.6155 27.9529ZM11.5174 35.9852C11.9317 36.1082 12.4043 36.1834 12.9352 36.2107C13.4661 36.2381 13.9873 36.1817 14.502 36.0398C15.015 35.8997 15.444 35.657 15.7903 35.3152C16.1399 34.9734 16.3374 34.4983 16.386 33.8865C16.4199 33.5003 16.2969 33.1329 16.0169 32.7859C15.7353 32.4356 15.3711 32.1263 14.9228 31.8562C14.4728 31.5828 14.0245 31.3897 13.5762 31.2752C13.1311 31.1624 12.7507 31.1573 12.4367 31.2615C12.2554 31.3128 12.1421 31.347 12.1 31.3641C12.0563 31.3829 12.0353 31.4239 12.0353 31.4871C12.0353 31.5469 11.9932 31.6563 11.9123 31.8152C11.8119 32.0579 11.7634 32.3724 11.7634 32.7586C11.7634 33.1414 11.7537 33.4747 11.7375 33.7566C11.7067 34.1224 11.6695 34.4932 11.6274 34.8709C11.5837 35.2503 11.5465 35.6211 11.5174 35.9852Z" fill="#59B379"/>
<path d="M23.6982 29.6896C23.7451 29.1974 23.9086 28.8043 24.1902 28.507C24.4751 28.2062 24.8069 28.0045 25.1872 27.8986C25.5708 27.7943 25.9447 27.7926 26.3073 27.8917C26.6698 27.9874 26.9579 28.1891 27.1748 28.4933C27.3901 28.7992 27.4742 29.1974 27.4273 29.6896C26.9433 34.4303 26.5695 39.1813 26.3073 43.9425C26.2716 44.4484 26.1211 44.8551 25.8541 45.1593C25.5902 45.4652 25.273 45.6686 24.9024 45.7677C24.5301 45.8634 24.1611 45.8634 23.7953 45.7677C23.4327 45.6686 23.13 45.4652 22.8889 45.1593C22.6461 44.8551 22.5425 44.4484 22.5781 43.9425C22.8403 39.1813 23.2142 34.4303 23.6982 29.6896Z" fill="#59B379"/>
<path d="M39.7579 39.5537C40.2191 39.417 40.6205 39.4358 40.9621 39.6084C41.3019 39.7827 41.5674 40.0442 41.7584 40.3945C41.9478 40.7466 42.0465 41.1243 42.0562 41.5293C42.0643 41.9309 41.9656 42.3018 41.7584 42.6435C41.5512 42.9819 41.2145 43.2109 40.7484 43.334C39.9068 43.5989 39.0408 43.792 38.1523 43.915C37.2669 44.0381 36.388 44.0432 35.5173 43.9287C34.6449 43.8159 33.8113 43.522 33.0182 43.0469C31.9905 42.418 31.2071 41.5618 30.6681 40.4766C30.1275 39.3931 29.8847 38.2275 29.9365 36.9834C30.0013 35.7581 30.2894 34.5823 30.8041 33.456C31.3171 32.3264 32.0018 31.3335 32.8564 30.4756C33.711 29.6194 34.6789 28.958 35.7633 28.4932C36.8509 28.0283 37.9839 27.8403 39.1622 27.9258C39.6413 27.9805 40.0249 28.1548 40.3146 28.4453C40.6027 28.7324 40.7937 29.0725 40.8844 29.4639C40.9782 29.8569 40.9782 30.2466 40.8844 30.6328C40.7937 31.0156 40.6027 31.3301 40.3146 31.5762C40.0249 31.8223 39.6413 31.918 39.1622 31.8633C38.2979 31.7949 37.4806 31.9658 36.7085 32.376C35.9397 32.7861 35.2907 33.3603 34.7598 34.0986C34.2289 34.8335 33.889 35.647 33.7433 36.5391C33.5912 37.3423 33.6284 37.9849 33.8534 38.4668C34.0768 38.9504 34.4118 39.3059 34.8569 39.5332C35.3052 39.7571 35.8151 39.8955 36.3848 39.9502C36.9578 40.0049 37.5388 39.9895 38.1264 39.9023C38.7171 39.8118 39.261 39.6956 39.7579 39.5537Z" fill="#59B379"/>
<path d="M55.7413 29.3204C55.2444 30.1954 54.7086 31.0704 54.1357 31.9454C53.5659 32.8204 52.9072 33.5997 52.161 34.2833C53.7537 36.1888 54.6568 38.4634 54.8737 41.1055C54.9029 41.6114 54.8058 42.0147 54.5824 42.3155C54.3623 42.6129 54.0726 42.8128 53.7149 42.917C53.3555 43.023 52.9865 43.023 52.6078 42.917C52.2274 42.8128 51.8956 42.6077 51.6107 42.3018C51.3291 41.9925 51.1737 41.5943 51.1446 41.1055C51.0572 40.1758 50.816 39.2872 50.4195 38.4395C50.0213 37.5919 49.5002 36.8638 48.8527 36.252C48.6876 38.4532 48.4659 40.6475 48.1859 42.835C48.1341 43.1871 47.9787 43.481 47.7198 43.7169C47.464 43.9544 47.1662 44.1168 46.8263 44.2022C46.4897 44.2894 46.1724 44.2894 45.8746 44.2022C45.3437 44.0484 44.9763 43.7374 44.774 43.2725C44.5749 42.8077 44.5102 42.3138 44.5798 41.7891C44.8938 39.306 45.1301 36.8126 45.2855 34.3106C45.4441 31.8052 45.5331 29.2913 45.5509 26.7706C45.5509 26.2647 45.6739 25.8648 45.9199 25.5674C46.1692 25.2667 46.48 25.065 46.8522 24.959C47.2277 24.8548 47.6 24.8548 47.9723 24.959C48.3429 25.065 48.6537 25.2667 48.9045 25.5674C49.1538 25.8648 49.28 26.2647 49.28 26.7706C49.2622 27.6285 49.2444 28.483 49.2282 29.334C49.2104 30.1817 49.1781 31.0345 49.1311 31.8907C49.6264 31.595 50.0828 31.1763 50.4972 30.6329C50.9115 30.0911 51.2822 29.5237 51.6107 28.9307C51.9425 28.3343 52.242 27.7994 52.5107 27.3243C52.7567 26.8868 53.0577 26.6031 53.417 26.4698C53.7747 26.3382 54.1389 26.3297 54.5112 26.4424C54.8818 26.5569 55.2039 26.7552 55.4758 27.0372C55.751 27.3157 55.9226 27.6575 55.9873 28.0626C56.0553 28.4642 55.9743 28.8829 55.7413 29.3204Z" fill="#59B379"/>
</svg>
