<svg width="88" height="88" viewBox="0 0 88 88" fill="none" xmlns="http://www.w3.org/2000/svg">
<g filter="url(#filter0_d_19_301)">
<circle cx="44" cy="40" r="40" fill="#FAF6E9"/>
</g>
<path d="M43.999 53.51L34.3042 59.6249C33.8759 59.9103 33.4282 60.0326 32.961 59.9918C32.4937 59.951 32.0849 59.788 31.7345 59.5026C31.3841 59.2173 31.1116 58.861 30.9169 58.4337C30.7222 58.0065 30.6833 57.5271 30.8001 56.9955L33.3698 45.4382L24.7846 37.6722C24.3953 37.3053 24.1523 36.8871 24.0558 36.4174C23.9592 35.9478 23.988 35.4896 24.1422 35.0428C24.2964 34.596 24.53 34.2291 24.843 33.9421C25.1561 33.6551 25.5844 33.4717 26.1279 33.3918L37.4579 32.3522L41.8381 21.4676C42.0328 20.9784 42.3349 20.6115 42.7445 20.3669C43.1541 20.1223 43.5723 20 43.999 20C44.4257 20 44.8439 20.1223 45.2535 20.3669C45.6631 20.6115 45.9652 20.9784 46.1599 21.4676L50.5401 32.3522L61.8701 33.3918C62.4152 33.4733 62.8435 33.6567 63.155 33.9421C63.4664 34.2275 63.7001 34.5944 63.8558 35.0428C64.0115 35.4912 64.0411 35.9503 63.9446 36.4199C63.848 36.8895 63.6043 37.307 63.2134 37.6722L54.6282 45.4382L57.1979 56.9955C57.3147 57.5255 57.2758 58.0049 57.0811 58.4337C56.8865 58.8626 56.6139 59.2189 56.2635 59.5026C55.9131 59.7864 55.5043 59.9494 55.037 59.9918C54.5698 60.0342 54.1221 59.9119 53.6938 59.6249L43.999 53.51Z" fill="#A0C878"/>
<defs>
<filter id="filter0_d_19_301" x="0" y="0" width="88" height="88" filterUnits="userSpaceOnUse" color-interpolation-filters="sRGB">
<feFlood flood-opacity="0" result="BackgroundImageFix"/>
<feColorMatrix in="SourceAlpha" type="matrix" values="0 0 0 0 0 0 0 0 0 0 0 0 0 0 0 0 0 0 127 0" result="hardAlpha"/>
<feOffset dy="4"/>
<feGaussianBlur stdDeviation="2"/>
<feComposite in2="hardAlpha" operator="out"/>
<feColorMatrix type="matrix" values="0 0 0 0 0 0 0 0 0 0 0 0 0 0 0 0 0 0 0.25 0"/>
<feBlend mode="normal" in2="BackgroundImageFix" result="effect1_dropShadow_19_301"/>
<feBlend mode="normal" in="SourceGraphic" in2="effect1_dropShadow_19_301" result="shape"/>
</filter>
</defs>
</svg>
