<svg width="88" height="88" viewBox="0 0 88 88" fill="none" xmlns="http://www.w3.org/2000/svg">
<g filter="url(#filter0_d_19_299)">
<circle cx="44" cy="40" r="40" fill="#FAF6E9"/>
</g>
<path fill-rule="evenodd" clip-rule="evenodd" d="M59.9104 28.5184C60.379 28.9873 60.6423 29.623 60.6423 30.2859C60.6423 30.9489 60.379 31.5846 59.9104 32.0534L41.172 50.7918C40.9244 51.0395 40.6304 51.2359 40.3068 51.37C39.9833 51.504 39.6364 51.573 39.2862 51.573C38.936 51.573 38.5891 51.504 38.2656 51.37C37.942 51.2359 37.648 51.0395 37.4004 50.7918L28.0904 41.4834C27.8516 41.2528 27.6611 40.977 27.5301 40.672C27.3991 40.3669 27.3301 40.0389 27.3272 39.7069C27.3244 39.375 27.3876 39.0458 27.5133 38.7386C27.639 38.4313 27.8247 38.1522 28.0594 37.9175C28.2941 37.6827 28.5732 37.4971 28.8805 37.3714C29.1877 37.2457 29.5169 37.1824 29.8489 37.1853C30.1808 37.1882 30.5089 37.2572 30.8139 37.3882C31.1189 37.5192 31.3948 37.7097 31.6254 37.9484L39.2854 45.6084L56.3737 28.5184C56.6059 28.2861 56.8815 28.1018 57.185 27.9761C57.4884 27.8504 57.8136 27.7856 58.142 27.7856C58.4705 27.7856 58.7957 27.8504 59.0991 27.9761C59.4025 28.1018 59.6782 28.2861 59.9104 28.5184Z" fill="#A0C878"/>
<defs>
<filter id="filter0_d_19_299" x="0" y="0" width="88" height="88" filterUnits="userSpaceOnUse" color-interpolation-filters="sRGB">
<feFlood flood-opacity="0" result="BackgroundImageFix"/>
<feColorMatrix in="SourceAlpha" type="matrix" values="0 0 0 0 0 0 0 0 0 0 0 0 0 0 0 0 0 0 127 0" result="hardAlpha"/>
<feOffset dy="4"/>
<feGaussianBlur stdDeviation="2"/>
<feComposite in2="hardAlpha" operator="out"/>
<feColorMatrix type="matrix" values="0 0 0 0 0 0 0 0 0 0 0 0 0 0 0 0 0 0 0.25 0"/>
<feBlend mode="normal" in2="BackgroundImageFix" result="effect1_dropShadow_19_299"/>
<feBlend mode="normal" in="SourceGraphic" in2="effect1_dropShadow_19_299" result="shape"/>
</filter>
</defs>
</svg>
