<svg width="88" height="88" viewBox="0 0 88 88" fill="none" xmlns="http://www.w3.org/2000/svg">
<g filter="url(#filter0_d_19_300)">
<circle cx="44" cy="40" r="40" fill="#FAF6E9"/>
</g>
<path d="M60.6447 50.2166C60.5679 50.7263 60.3739 51.2112 60.078 51.6332C59.7836 52.048 59.3936 52.3856 58.941 52.6177C58.4884 52.8498 57.9866 52.9695 57.478 52.9666H54.7264C54.5306 52.966 54.3379 52.9188 54.164 52.829C53.9901 52.7391 53.8401 52.6092 53.7264 52.4499C53.6113 52.2907 53.5349 52.107 53.5031 51.9132C53.4712 51.7194 53.4849 51.5208 53.543 51.3332C54.1597 49.3666 54.0264 47.1499 48.4414 43.5999C48.2138 43.4508 48.0394 43.2332 47.9436 42.9786C47.8477 42.7239 47.8353 42.4454 47.908 42.1832C47.9861 41.925 48.1446 41.6984 48.3605 41.5365C48.5763 41.3746 48.8382 41.2859 49.108 41.2832C51.4918 41.3157 53.8182 42.0193 55.8204 43.3134C57.8226 44.6075 59.4195 46.4397 60.428 48.5999C60.633 49.1125 60.7075 49.6681 60.6447 50.2166ZM56.4764 31.8332C56.472 33.7859 55.6942 35.6574 54.3133 37.038C52.9323 38.4186 51.0607 39.1959 49.108 39.1999C48.8893 39.1959 48.6753 39.1354 48.4869 39.0241C48.2985 38.9129 48.1421 38.7547 48.033 38.565C47.9239 38.3754 47.8658 38.1607 47.8644 37.9419C47.8629 37.7231 47.9181 37.5077 48.0247 37.3166C49.0446 35.6848 49.5855 33.7992 49.5855 31.8749C49.5855 29.9506 49.0446 28.065 48.0247 26.4332C47.894 26.2464 47.8168 26.0274 47.8016 25.7999C47.7864 25.5724 47.8337 25.3451 47.9384 25.1425C48.0431 24.94 48.2012 24.7699 48.3957 24.6508C48.5901 24.5316 48.8133 24.4679 49.0414 24.4666C50.0171 24.4641 50.9831 24.6609 51.8802 25.0449C52.7772 25.429 53.5863 25.9921 54.258 26.6999C55.629 28.0843 56.4017 29.9516 56.4097 31.8999L56.4764 31.8332Z" fill="#A0C878"/>
<path d="M51.7919 50.1666C51.8593 50.9825 51.6987 51.8011 51.3278 52.531C50.957 53.2608 50.3906 53.8733 49.6919 54.2999C48.9952 54.7283 48.1919 54.9533 47.3752 54.9499H31.7536C30.9358 54.9536 30.1334 54.7284 29.4369 54.2999C28.7366 53.8759 28.1696 53.2635 27.8006 52.5326C27.4316 51.8017 27.2756 50.9819 27.3502 50.1666C27.4107 49.3531 27.6995 48.5732 28.1836 47.9166C29.5124 46.1486 31.2239 44.7039 33.19 43.6909C35.1561 42.6778 37.3258 42.1225 39.5369 42.0666C41.7555 42.1106 43.9351 42.6587 45.9107 43.6693C47.8863 44.6799 49.6062 46.1266 50.9402 47.8999C51.4253 48.5637 51.7209 49.3476 51.7919 50.1666ZM47.7419 31.1999C47.7375 33.3666 46.8757 35.4435 45.3449 36.9769C43.8141 38.5102 41.7386 39.3753 39.5719 39.3833C38.3655 39.3803 37.1748 39.1102 36.0851 38.5925C34.9955 38.0748 34.034 37.3222 33.2697 36.3889C32.5054 35.4555 31.9572 34.3645 31.6645 33.1942C31.3718 32.0238 31.3419 30.8032 31.5769 29.6199C31.8129 28.4364 32.3082 27.3198 33.0273 26.3506C33.7464 25.3814 34.6714 24.5836 35.7357 24.0146C36.8001 23.4456 37.9772 23.1196 39.1826 23.06C40.388 23.0004 41.5916 23.2087 42.7069 23.6699C44.1984 24.2857 45.474 25.3296 46.3728 26.6698C47.2716 28.0099 47.7532 29.5863 47.7569 31.1999H47.7419Z" fill="#A0C878"/>
<defs>
<filter id="filter0_d_19_300" x="0" y="0" width="88" height="88" filterUnits="userSpaceOnUse" color-interpolation-filters="sRGB">
<feFlood flood-opacity="0" result="BackgroundImageFix"/>
<feColorMatrix in="SourceAlpha" type="matrix" values="0 0 0 0 0 0 0 0 0 0 0 0 0 0 0 0 0 0 127 0" result="hardAlpha"/>
<feOffset dy="4"/>
<feGaussianBlur stdDeviation="2"/>
<feComposite in2="hardAlpha" operator="out"/>
<feColorMatrix type="matrix" values="0 0 0 0 0 0 0 0 0 0 0 0 0 0 0 0 0 0 0.25 0"/>
<feBlend mode="normal" in2="BackgroundImageFix" result="effect1_dropShadow_19_300"/>
<feBlend mode="normal" in="SourceGraphic" in2="effect1_dropShadow_19_300" result="shape"/>
</filter>
</defs>
</svg>
