<svg width="20" height="19" viewBox="0 0 20 19" fill="none" xmlns="http://www.w3.org/2000/svg">
<path d="M10 18C14.9705 18 19 13.839 19 11C19 8.161 14.9705 4 10 4C5.0295 4 1 8.164 1 11C1 13.836 5.0295 18 10 18Z" stroke="black" stroke-width="2" stroke-linejoin="round"/>
<path d="M10 14C10.7956 14 11.5587 13.6839 12.1213 13.1213C12.6839 12.5587 13 11.7956 13 11C13 10.2044 12.6839 9.44129 12.1213 8.87868C11.5587 8.31607 10.7956 8 10 8C9.20435 8 8.44129 8.31607 7.87868 8.87868C7.31607 9.44129 7 10.2044 7 11C7 11.7956 7.31607 12.5587 7.87868 13.1213C8.44129 13.6839 9.20435 14 10 14Z" stroke="black" stroke-width="2" stroke-linejoin="round"/>
<path d="M4.63184 3.133L5.92884 4.943M15.8123 3.355L14.5148 5.165M10.0043 1V4" stroke="black" stroke-width="2" stroke-linecap="round"/>
</svg>
